#N canvas 108 52 943 623 10;
#X declare -path rj;
#X declare -path starter;
#X obj -1 64 nbx 5 14 -1e+37 1e+37 0 0 empty empty empty 0 -8 0 10
-262144 -1 -1 0 256;
#X obj -3 232 *~ 0.5;
#X obj -3 328 dac~;
#X obj -3 298 +~;
#X obj 35 297 +~;
#X obj -4 -8 declare -path rj;
#X obj -4 14 declare -path starter;
#X obj 86 112 saw~;
#X obj 42 110 saw~;
#X obj 45 87 - 0.5;
#X obj 0 85 + 0.5;
#X obj 0 109 saw~;
#N canvas 9 218 1125 666 delay 0;
#X msg 630 297 feedback \$1;
#X obj 630 243 / 100;
#X obj 630 137 vsl 15 100 0 100 0 0 empty empty feedback 0 -9 1 10
-262144 -1 -1 0 1;
#X obj 877 141 vsl 15 100 0 2000 0 0 empty empty delay_time(ms) 0 -9
1 10 -262144 -1 -1 0 1;
#X msg 881 304 delay \$1;
#X floatatom 884 250 8 0 0 0 - - -;
#X floatatom 647 267 5 0 0 0 - - -;
#X obj 953 113 vsl 15 128 0 127 0 0 empty empty delay_frequency 0 -9
1 10 -262144 -1 -1 0 1;
#X msg 953 297 delayfreq \$1;
#X obj 953 247 mtof;
#X floatatom 991 250 5 0 0 1 pitch - -;
#X obj 717 105 vsl 15 128 0 127 0 0 empty empty lowpass_cutoff_fr.
0 -9 1 10 -262144 -1 -1 0 1;
#X obj 717 239 mtof;
#X floatatom 731 267 8 0 0 0 - - -;
#X msg 717 297 lpfreq \$1;
#X obj 953 317 s \$0-trigger;
#X floatatom 969 277 8 0 0 1 freq - -;
#X obj 670 362 hsl 50 15 0 1 0 0 empty empty empty -2 -8 0 10 -262144
-1 -1 0 1;
#X floatatom 667 380 5 0 0 0 - - -;
#X msg 667 397 dry \$1;
#X msg 798 297 input \$1;
#X obj 798 243 / 100;
#X obj 798 137 vsl 15 100 0 100 0 0 empty empty inputlevel 0 -9 1 10
-262144 -1 -1 0 1;
#X floatatom 815 267 5 0 0 0 - - -;
#X obj 171 275 inlet~;
#X obj 252 384 outlet~;
#X obj 252 339 e_fbdelay mydelay 2000;
#X obj 281 294 sig~ 0;
#X msg 188 121 500;
#X obj 185 68 loadbang;
#X obj 510 207 inlet;
#X msg 233 113 feedback 0.7 \, input 1 \, lpfreq 2000 \, input 1 \,
dry 0 \, delay 500;
#X connect 0 0 26 2;
#X connect 1 0 0 0;
#X connect 1 0 6 0;
#X connect 2 0 1 0;
#X connect 3 0 4 0;
#X connect 3 0 5 0;
#X connect 4 0 26 2;
#X connect 7 0 9 0;
#X connect 7 0 10 0;
#X connect 8 0 15 0;
#X connect 9 0 8 0;
#X connect 9 0 16 0;
#X connect 11 0 12 0;
#X connect 12 0 14 0;
#X connect 12 0 13 0;
#X connect 17 0 18 0;
#X connect 18 0 19 0;
#X connect 20 0 26 2;
#X connect 21 0 23 0;
#X connect 21 0 20 0;
#X connect 22 0 21 0;
#X connect 24 0 26 0;
#X connect 26 0 25 0;
#X connect 27 0 26 1;
#X connect 28 0 27 0;
#X connect 29 0 28 0;
#X connect 29 0 31 0;
#X connect 30 0 4 0;
#X connect 31 0 26 2;
#X restore -2 209 pd delay;
#X obj 43 232 line;
#X obj -1 39 r freq;
#X obj 61 39 r note;
#X obj 61 61 mtof;
#X obj 203 132 r release;
#X obj 148 101 r play;
#X msg 166 157 0 500;
#X obj 59 155 r cutoff;
#X obj 80 134 nbx 5 14 -1e+37 1e+37 0 0 empty empty empty 0 -8 0 10
-262144 -1 -1 0 256;
#X obj 143 191 r rez;
#X obj 0 183 e_resonzq 2000 1 1;
#X obj 143 235 line;
#X msg 142 213 \$1 1000;
#X obj 57 265 rev3~ 100 92 3000 40;
#X obj 345 102 metro 500;
#X obj 305 102 timer;
#X obj 305 134 s timeSymbol;
#X obj 250 172 r delay;
#X msg 146 127 0.5 80;
#N canvas 0 22 450 300 (subpatch) 0;
#X array array1 308112 float 2;
#X coords 0 1 308112 -1 200 140 1;
#X restore 47 354 graph;
#X obj 285 221 soundfiler;
#X msg 315 195 read ../doc/sound/vocal.aiff array2;
#X msg 315 172 read -resize amen_brother.wav array1;
#X obj 596 424 print~;
#X msg 596 389 bang;
#X obj 354 382 loop~;
#X floatatom 408 321 0 0 0 0 - - -;
#X obj 525 424 print~;
#X msg 525 389 bang;
#X obj 358 449 *~;
#X obj 358 541 hip~ 5;
#X obj 404 453 samphold~;
#X floatatom 438 345 0 0 0 0 - - -;
#X obj 438 368 *~ 1000;
#X msg 379 253 set 0.5;
#X text 437 238 left signal input is transposition (1 is normal \,
2 is up an octave \, etc);
#X text 458 270 set phase (0 to 1);
#X text 446 295 reset phase to 0;
#X text 446 320 right signal input is window size in samples;
#X text 476 344 here's how to handle onsets;
#X obj 358 518 *~;
#X floatatom 509 474 0 0 0 0 - - -;
#X obj 509 543 line~;
#X obj 509 497 dbtorms;
#X obj 509 520 pack 0 50;
#X text 543 473 output level 0-100;
#X text 529 368 print outputs;
#X obj 358 495 tabread4~ array1;
#X obj 537 31 r trigger;
#X msg 344 302 bang;
#X msg 561 173 100;
#X obj 295 320 1;
#X obj 286 256 t b b f;
#X msg 428 89 read -resize /Users/evan/Documents/Processing2/CreativeCode/libPDxyPadWii/data/amen_brother.wav
array1;
#X obj 355 14 loadbang;
#X obj 441 33 t b;
#X obj 289 432 *~;
#X obj 287 397 saw~;
#X obj 226 320 / 1;
#X obj 216 261 t b f;
#X obj 259 369 print;
#X obj 207 291 44100;
#X msg 264 286 0.2;
#X connect 0 0 10 0;
#X connect 0 0 8 0;
#X connect 0 0 9 0;
#X connect 1 0 3 0;
#X connect 1 0 4 0;
#X connect 1 0 26 0;
#X connect 1 0 26 1;
#X connect 3 0 2 0;
#X connect 4 0 2 1;
#X connect 7 0 23 0;
#X connect 8 0 23 0;
#X connect 9 0 7 0;
#X connect 10 0 11 0;
#X connect 11 0 23 0;
#X connect 12 0 1 0;
#X connect 13 0 1 1;
#X connect 14 0 0 0;
#X connect 15 0 16 0;
#X connect 16 0 0 0;
#X connect 17 0 19 0;
#X connect 18 0 31 0;
#X connect 19 0 13 0;
#X connect 20 0 23 1;
#X connect 21 0 23 1;
#X connect 22 0 25 0;
#X connect 23 0 12 0;
#X connect 24 0 23 2;
#X connect 25 0 24 0;
#X connect 26 0 3 1;
#X connect 26 1 4 1;
#X connect 27 0 28 1;
#X connect 28 0 29 0;
#X connect 30 0 12 1;
#X connect 31 0 13 0;
#X connect 33 0 65 0;
#X connect 34 0 33 0;
#X connect 35 0 33 0;
#X connect 37 0 36 0;
#X connect 38 0 40 0;
#X connect 38 0 42 0;
#X connect 38 0 44 1;
#X connect 38 1 36 0;
#X connect 38 1 42 1;
#X connect 39 0 38 1;
#X connect 39 0 69 1;
#X connect 41 0 40 0;
#X connect 43 0 12 0;
#X connect 43 0 26 0;
#X connect 45 0 46 0;
#X connect 46 0 44 0;
#X connect 47 0 38 0;
#X connect 53 0 43 0;
#X connect 54 0 56 0;
#X connect 55 0 53 1;
#X connect 56 0 57 0;
#X connect 57 0 55 0;
#X connect 60 0 53 0;
#X connect 62 0 38 0;
#X connect 63 0 54 0;
#X connect 64 0 38 0;
#X connect 64 0 70 0;
#X connect 65 0 75 0;
#X connect 65 1 38 0;
#X connect 65 2 39 0;
#X connect 66 0 33 0;
#X connect 67 0 68 0;
#X connect 68 0 27 0;
#X connect 68 0 28 0;
#X connect 68 0 63 0;
#X connect 68 0 35 0;
#X connect 69 0 60 0;
#X connect 70 0 69 0;
#X connect 71 0 70 0;
#X connect 71 0 73 0;
#X connect 72 0 74 0;
#X connect 72 1 71 1;
#X connect 74 0 71 0;
#X connect 75 0 70 0;
