#N canvas 108 52 943 623 10;
#X declare -path rj;
#X declare -path starter;
#X obj -1 64 nbx 5 14 -1e+37 1e+37 0 0 empty empty empty 0 -8 0 10
-262144 -1 -1 0 256;
#X obj -3 232 *~ 0.5;
#X obj -2 350 dac~;
#X obj -3 298 +~;
#X obj 35 297 +~;
#X obj -4 -8 declare -path rj;
#X obj -4 14 declare -path starter;
#X obj 86 112 saw~;
#X obj 42 110 saw~;
#X obj 45 87 - 0.5;
#X obj 0 85 + 0.5;
#X obj 0 109 saw~;
#N canvas 9 218 1125 666 delay 0;
#X msg 630 297 feedback \$1;
#X obj 630 243 / 100;
#X obj 630 137 vsl 15 100 0 100 0 0 empty empty feedback 0 -9 1 10
-262144 -1 -1 0 1;
#X obj 877 141 vsl 15 100 0 2000 0 0 empty empty delay_time(ms) 0 -9
1 10 -262144 -1 -1 0 1;
#X msg 881 304 delay \$1;
#X floatatom 884 250 8 0 0 0 - - -;
#X floatatom 647 267 5 0 0 0 - - -;
#X obj 953 113 vsl 15 128 0 127 0 0 empty empty delay_frequency 0 -9
1 10 -262144 -1 -1 0 1;
#X msg 953 297 delayfreq \$1;
#X obj 953 247 mtof;
#X floatatom 991 250 5 0 0 1 pitch - -;
#X obj 717 105 vsl 15 128 0 127 0 0 empty empty lowpass_cutoff_fr.
0 -9 1 10 -262144 -1 -1 0 1;
#X obj 717 239 mtof;
#X floatatom 731 267 8 0 0 0 - - -;
#X msg 717 297 lpfreq \$1;
#X obj 953 317 s \$0-trigger;
#X floatatom 969 277 8 0 0 1 freq - -;
#X obj 670 362 hsl 50 15 0 1 0 0 empty empty empty -2 -8 0 10 -262144
-1 -1 0 1;
#X floatatom 667 380 5 0 0 0 - - -;
#X msg 667 397 dry \$1;
#X msg 798 297 input \$1;
#X obj 798 243 / 100;
#X obj 798 137 vsl 15 100 0 100 0 0 empty empty inputlevel 0 -9 1 10
-262144 -1 -1 0 1;
#X floatatom 815 267 5 0 0 0 - - -;
#X obj 171 275 inlet~;
#X obj 252 384 outlet~;
#X obj 252 339 e_fbdelay mydelay 2000;
#X obj 281 294 sig~ 0;
#X msg 188 121 500;
#X obj 185 68 loadbang;
#X obj 510 207 inlet;
#X msg 233 113 feedback 0.7 \, input 1 \, lpfreq 2000 \, input 1 \,
dry 0 \, delay 500;
#X connect 0 0 26 2;
#X connect 1 0 0 0;
#X connect 1 0 6 0;
#X connect 2 0 1 0;
#X connect 3 0 4 0;
#X connect 3 0 5 0;
#X connect 4 0 26 2;
#X connect 7 0 9 0;
#X connect 7 0 10 0;
#X connect 8 0 15 0;
#X connect 9 0 8 0;
#X connect 9 0 16 0;
#X connect 11 0 12 0;
#X connect 12 0 14 0;
#X connect 12 0 13 0;
#X connect 17 0 18 0;
#X connect 18 0 19 0;
#X connect 20 0 26 2;
#X connect 21 0 23 0;
#X connect 21 0 20 0;
#X connect 22 0 21 0;
#X connect 24 0 26 0;
#X connect 26 0 25 0;
#X connect 27 0 26 1;
#X connect 28 0 27 0;
#X connect 29 0 28 0;
#X connect 29 0 31 0;
#X connect 30 0 4 0;
#X connect 31 0 26 2;
#X restore -2 209 pd delay;
#X obj 77 228 line;
#X obj -1 39 r freq;
#X obj 61 39 r note;
#X obj 61 61 mtof;
#X obj 203 132 r release;
#X obj 148 101 r play;
#X msg 166 157 0 500;
#X obj 59 155 r cutoff;
#X obj 80 134 nbx 5 14 -1e+37 1e+37 0 0 empty empty empty 0 -8 0 10
-262144 -1 -1 0 256;
#X obj 143 191 r rez;
#X obj 0 183 e_resonzq 2000 1 1;
#X obj 143 235 line;
#X msg 142 213 \$1 1000;
#X obj 57 265 rev3~ 100 92 3000 40;
#X obj 336 58 metro 500;
#X obj 296 58 timer;
#X obj 296 90 s timeSymbol;
#X obj 250 172 r delay;
#N canvas 0 22 450 300 (subpatch) 0;
#X array array1 307484 float 2;
#X coords 0 1 307484 -1 200 140 1;
#X restore 47 354 graph;
#X obj 315 198 soundfiler;
#X msg 315 172 read -resize amen_brother.wav array1;
#X floatatom 335 231 0 0 0 0 - - -;
#X obj 358 541 hip~ 5;
#X text 446 320 right signal input is window size in samples;
#X obj 358 518 *~;
#X obj 445 442 line~;
#X obj 445 396 dbtorms;
#X obj 445 419 pack 0 50;
#X obj 358 495 tabread4~ array1;
#X obj 537 31 r trigger;
#X msg 561 173 100;
#X obj 261 26 loadbang;
#X obj 261 57 t b;
#X obj 313 458 *~;
#X obj 280 291 / 1;
#X obj 282 232 t b f;
#X obj 281 263 44100;
#X floatatom 445 373 0 0 0 0 - - -;
#X text 479 372 output level 0-100;
#X obj 280 371 +~ 1;
#X obj 347 426 snapshot~;
#X obj 353 464 nbx 5 14 -1e+37 1e+37 0 0 empty empty empty 0 -8 0 10
-262144 -1 -1 0.772276 256;
#X obj 280 341 phasor~;
#X obj 336 260 - 2;
#X obj 280 396 *~ 0.5;
#X obj 280 316 * 2;
#X obj 498 345 r beatlevel;
#X obj 559 238 - 100;
#X obj 612 237 100;
#X obj 574 123 bng 15 250 50 0 empty empty empty 17 7 0 10 -262144
-1 -1;
#X msg 146 127 0.5 80;
#X obj 0 150 *~ 0.3;
#X connect 0 0 10 0;
#X connect 0 0 8 0;
#X connect 0 0 9 0;
#X connect 1 0 3 0;
#X connect 1 0 4 0;
#X connect 1 0 26 0;
#X connect 1 0 26 1;
#X connect 3 0 2 0;
#X connect 4 0 2 1;
#X connect 7 0 64 0;
#X connect 8 0 64 0;
#X connect 9 0 7 0;
#X connect 10 0 11 0;
#X connect 11 0 64 0;
#X connect 12 0 1 0;
#X connect 13 0 1 1;
#X connect 14 0 0 0;
#X connect 15 0 16 0;
#X connect 16 0 0 0;
#X connect 17 0 19 0;
#X connect 18 0 63 0;
#X connect 19 0 13 0;
#X connect 20 0 23 1;
#X connect 21 0 23 1;
#X connect 22 0 25 0;
#X connect 23 0 12 0;
#X connect 24 0 23 2;
#X connect 25 0 24 0;
#X connect 26 0 3 1;
#X connect 26 1 4 1;
#X connect 27 0 28 1;
#X connect 27 0 53 0;
#X connect 28 0 29 0;
#X connect 30 0 12 1;
#X connect 32 0 48 0;
#X connect 32 0 34 0;
#X connect 33 0 32 0;
#X connect 34 0 56 0;
#X connect 35 0 12 0;
#X connect 35 0 26 0;
#X connect 35 0 23 0;
#X connect 37 0 35 0;
#X connect 38 0 37 1;
#X connect 39 0 40 0;
#X connect 40 0 38 0;
#X connect 41 0 37 0;
#X connect 42 0 43 0;
#X connect 43 0 60 0;
#X connect 44 0 45 0;
#X connect 45 0 28 0;
#X connect 45 0 33 0;
#X connect 46 0 41 0;
#X connect 47 0 58 0;
#X connect 48 0 49 0;
#X connect 48 1 47 1;
#X connect 49 0 47 0;
#X connect 50 0 39 0;
#X connect 52 0 57 0;
#X connect 53 0 54 0;
#X connect 55 0 52 0;
#X connect 56 0 46 1;
#X connect 57 0 46 0;
#X connect 57 0 53 0;
#X connect 58 0 55 0;
#X connect 59 0 39 0;
#X connect 60 0 61 0;
#X connect 60 0 50 0;
#X connect 61 0 60 1;
#X connect 62 0 43 0;
#X connect 63 0 13 0;
#X connect 64 0 23 0;
